<?xml version="1.0" encoding="utf-8"?>
<svg viewBox="-364.861 -59.338 924.196 646.45" xmlns="http://www.w3.org/2000/svg">
  <defs>
    <linearGradient id="a340ed46-1652-4aba-8925-cf57be9109ca" x1="421.41" y1="548.67" x2="423.73" y2="548.67" gradientUnits="userSpaceOnUse" gradientTransform="matrix(0.802257, 0, 0, 0.863175, -387.569477, -124.150623)">
      <stop offset="0" stop-color="gray" stop-opacity="0.25"/>
      <stop offset="0.54" stop-color="gray" stop-opacity="0.12"/>
      <stop offset="1" stop-color="gray" stop-opacity="0.1"/>
    </linearGradient>
  </defs>
  <path d="M 109.381 60.292 C 52.124 70.702 -5.054 66.24 -60.056 59.749 C -115.059 53.257 -169.925 44.781 -227.206 47.336 C -264.054 48.976 -305.089 56.831 -330.817 79.662 C -355.583 101.621 -359.442 131.254 -359.49 158.004 C -359.554 178.125 -357.933 198.944 -344.681 214.973 C -335.47 226.091 -321.294 234.058 -310.617 244.322 C -273.464 279.971 -284.76 336.103 -309.141 383.827 C -320.581 406.218 -334.572 428.238 -342.362 451.155 C -350.152 474.072 -351.186 498.63 -337.244 517.318 C -323.429 535.85 -296.706 546.294 -268.843 551.707 C -212.252 562.703 -149.203 555.876 -88.199 546.622 C 46.812 526.07 180.428 494.029 313.756 462.066 C 363.086 450.232 412.633 438.346 460.159 421.289 C 486.553 411.795 513.428 399.978 530.477 381.583 C 552.138 358.278 552.683 326.401 531.808 307.35 C 496.782 275.413 417.503 282.499 390.411 245.987 C 375.505 225.884 381.995 198.582 393.861 174.464 C 419.3 122.743 468.471 71.643 462.1 20.077 C 457.704 -15.313 424.162 -44.601 379.203 -52.231 C 332.079 -60.224 271.557 -45.067 244.424 -9.453 C 216.53 27.241 159.938 51.074 109.381 60.292 Z" opacity="0.1" style="fill: rgb(0, 11, 216);"/>
  <rect x="-70.71" y="255.793" width="227.383" height="56.65" fill="#565661" style=""/>
  <rect x="-70.71" y="255.793" width="227.383" height="56.65" opacity="0.1" style=""/>
  <polygon points="-43.505 314.308 -41.909 465.544 -63.778 524.948 -65.472 314.308 -43.505 314.308" fill="#bcbec9" style=""/>
  <polygon points="-68.312 266.669 153.072 268.102 153.072 310.293 -68.312 310.293 -68.312 266.669" fill="#565661" style=""/>
  <polygon points="134.13 314.308 153.072 317.182 153.072 522.652 134.13 459.805 134.13 314.308" fill="#bcbec9" style=""/>
  <rect x="160.268" y="258.062" width="106.692" height="243.934" fill="#efeff0" style=""/>
  <rect x="168.804" y="264.839" width="89.62" height="187.508" fill="#565661" style=""/>
  <rect x="168.804" y="264.839" width="89.62" height="187.508" opacity="0.1" style=""/>
  <rect x="168.804" y="268.68" width="89.62" height="41.614" fill="#565661" style=""/>
  <rect x="168.804" y="314.308" width="89.62" height="88.389" fill="#565661" style=""/>
  <rect x="168.804" y="408.151" width="89.62" height="88.389" fill="#565661" style=""/>
  <rect x="168.804" y="408.151" width="89.62" height="88.389" opacity="0.1" style=""/>
  <ellipse cx="172.542" cy="509.937" rx="5.776" ry="7.941" fill="#565661" style=""/>
  <ellipse cx="252.647" cy="510.317" rx="5.776" ry="7.941" fill="#565661" style=""/>
  <polygon points="-71.512 524.948 -63.778 524.948 -65.905 260.178 -77.649 260.178 -71.512 524.948" fill="#efeff0" style=""/>
  <polygon points="153.072 258.062 153.072 522.652 160.268 522.652 160.268 260.178 153.072 258.062" fill="#efeff0" style=""/>
  <polygon points="-65.528 307.704 -65.528 317.182 153.072 317.182 153.072 310.293 -65.528 307.704" fill="#efeff0" style=""/>
  <polygon points="-50.71 240.273 226.422 240.273 266.695 254.619 266.695 262.94 -78.981 260.074 -78.981 251.606 -50.71 240.273" fill="#fff" style=""/>
  <polygon points="-78.981 251.606 266.695 254.619 266.695 262.94 -78.981 260.074 -78.981 251.606" fill="#bcbec9" style=""/>
  <path d="M -47.669 350.285 L -49.274 350.026 C -49.274 349.948 -49.274 349.879 -49.274 349.81 C -49.322 349.404 -49.378 349.007 -49.434 348.601 C -48.776 349.163 -48.15 349.723 -47.573 350.285 L -47.669 350.285 Z" fill="url(#a340ed46-1652-4aba-8925-cf57be9109ca)" style=""/>
  <path d="M -82.535 483.567 C -81.492 483.308 -80.433 483.092 -79.374 482.937 C -72.101 481.823 -64.684 482.998 -58.018 486.321 C -58.692 491.655 -59.358 497.171 -57.93 502.324 C -56.936 505.949 -54.937 509.23 -54.513 513.011 C -52.327 513.415 -50.541 515.112 -49.9 517.395 C -49.592 518.385 -49.437 519.424 -49.442 520.468 C -49.451 521.76 -49.601 523.047 -49.892 524.301 C -50.094 526.383 -51.802 527.914 -53.742 527.753 C -59.952 528.513 -66.041 525.88 -71.817 523.3 L -83.049 518.275 C -84.364 517.688 -85.688 517.093 -86.948 516.368 C -89.337 514.98 -91.458 513.113 -93.197 510.87 C -93.565 510.469 -93.823 509.967 -93.943 509.419 C -94.152 507.9 -92.499 506.994 -91.448 505.967 C -91.141 505.653 -90.871 505.3 -90.646 504.914 C -89.403 502.894 -89.282 500.106 -88.536 497.724 C -86.771 492.07 -81.316 488.427 -79.39 482.911 C -79.286 482.609 -79.189 482.307 -79.109 481.997" fill="#a26565" style=""/>
  <path d="M -49.442 520.468 C -49.451 521.76 -49.601 523.047 -49.892 524.301 C -50.094 526.383 -51.802 527.914 -53.742 527.753 C -59.952 528.513 -66.041 525.88 -71.817 523.3 L -83.049 518.275 C -84.364 517.688 -85.688 517.093 -86.948 516.368 C -89.337 514.98 -91.458 513.113 -93.197 510.87 C -93.565 510.469 -93.823 509.967 -93.943 509.419 C -94.152 507.9 -92.499 506.994 -91.448 505.967 C -91.141 505.653 -90.871 505.3 -90.646 504.914 C -87.549 505.63 -83.707 507.728 -81.34 508.539 C -78.969 509.234 -76.693 510.258 -74.569 511.586 C -71.617 513.623 -69.49 516.765 -66.988 519.355 C -64.485 521.944 -61.252 524.301 -57.761 523.982 C -55.917 523.682 -54.138 523.021 -52.514 522.031 L -49.442 520.468 Z" opacity="0.1" style=""/>
  <path d="M -62.592 397.802 C -62.164 399.407 -62.707 401.127 -63.955 402.118 C -65.006 402.817 -66.362 402.723 -67.405 403.482 C -68.696 404.457 -68.881 406.391 -69.105 408.066 C -69.908 413.823 -72.563 419.045 -74.833 424.336 C -77.104 429.627 -79.021 435.403 -78.187 441.151 C -77.617 445.053 -75.836 449.213 -77.505 452.726 C -77.914 453.589 -78.524 454.357 -78.989 455.195 C -81.276 459.303 -79.976 464.509 -80.064 469.29 C -80.03 469.821 -80.139 470.352 -80.377 470.818 C -80.728 471.259 -81.159 471.618 -81.645 471.871 C -83.294 473.176 -84.302 475.22 -84.38 477.422 C -84.448 479.595 -84.205 481.767 -83.659 483.861 C -83.57 484.706 -83.223 485.496 -82.672 486.105 C -82.033 486.559 -81.278 486.788 -80.513 486.761 C -75.473 487.201 -70.53 488.494 -65.864 490.593 C -62.824 491.958 -59.872 493.667 -56.638 494.322 C -56.006 494.533 -55.321 494.455 -54.745 494.107 C -54.339 493.712 -54.058 493.189 -53.942 492.613 C -52.7 488.211 -51.44 483.671 -51.865 479.096 C -52.049 477.129 -52.538 475.203 -52.668 473.235 C -53.229 465.467 -48.343 458.457 -46.794 450.792 C -46.097 447.34 -46.097 443.767 -45.599 440.279 C -44.252 430.724 -39.358 422.152 -37.473 412.701 C -37.21 410.939 -36.802 409.206 -36.253 407.522 C -34.849 403.862 -31.6 400.892 -31.527 396.931 C -31.483 396.059 -31.697 395.194 -32.138 394.462 C -32.894 393.569 -33.899 392.963 -35.002 392.735 C -39.36 391.446 -43.797 390.482 -48.279 389.852 C -50.334 389.418 -52.43 389.262 -54.521 389.386 C -57.235 389.73 -59.844 390.721 -62.158 392.287 C -65.254 394.341 -63.265 394.833 -62.592 397.802 Z" fill="#454b69" style=""/>
  <path d="M -62.592 397.802 C -62.164 399.407 -62.707 401.127 -63.955 402.118 C -65.006 402.817 -66.362 402.723 -67.405 403.482 C -68.696 404.457 -68.881 406.391 -69.105 408.066 C -69.908 413.823 -72.563 419.045 -74.833 424.336 C -77.104 429.627 -79.021 435.403 -78.187 441.151 C -77.617 445.053 -75.836 449.213 -77.505 452.726 C -77.914 453.589 -78.524 454.357 -78.989 455.195 C -81.276 459.303 -79.976 464.509 -80.064 469.29 C -80.03 469.821 -80.139 470.352 -80.377 470.818 C -80.728 471.259 -81.159 471.618 -81.645 471.871 C -83.294 473.176 -84.302 475.22 -84.38 477.422 C -84.448 479.595 -84.205 481.767 -83.659 483.861 C -83.57 484.706 -83.223 485.496 -82.672 486.105 C -82.033 486.559 -81.278 486.788 -80.513 486.761 C -75.473 487.201 -70.53 488.494 -65.864 490.593 C -62.824 491.958 -59.872 493.667 -56.638 494.322 C -56.006 494.533 -55.321 494.455 -54.745 494.107 C -54.339 493.712 -54.058 493.189 -53.942 492.613 C -52.7 488.211 -51.44 483.671 -51.865 479.096 C -52.049 477.129 -52.538 475.203 -52.668 473.235 C -53.229 465.467 -48.343 458.457 -46.794 450.792 C -46.097 447.34 -46.097 443.767 -45.599 440.279 C -44.252 430.724 -39.358 422.152 -37.473 412.701 C -37.21 410.939 -36.802 409.206 -36.253 407.522 C -34.849 403.862 -31.6 400.892 -31.527 396.931 C -31.483 396.059 -31.697 395.194 -32.138 394.462 C -32.894 393.569 -33.899 392.963 -35.002 392.735 C -39.36 391.446 -43.797 390.482 -48.279 389.852 C -50.334 389.418 -52.43 389.262 -54.521 389.386 C -57.235 389.73 -59.844 390.721 -62.158 392.287 C -65.254 394.341 -63.265 394.833 -62.592 397.802 Z" opacity="0.05" style=""/>
  <polygon points="-78.292 527.891 -85.135 527.891 -89.611 428.937 -89.924 423.309 -84.108 421.108 -83.715 427.09 -78.292 527.891" fill="#565661" style=""/>
  <polygon points="-83.715 427.09 -89.611 428.937 -89.924 423.309 -84.108 421.108 -83.715 427.09" opacity="0.1" style=""/>
  <polygon points="7.574 548.824 -3.714 550.291 -55.716 423.309 -69.74 422.204 -94.368 429.938 -99.157 581.124 -110.446 581.124 -106.001 424.414 -133.03 425.156 -181.261 554.339 -191.522 554.339 -140.795 403.362 -138.838 397.543 -63.241 394.755 -44.396 406.123 -44.155 406.78 7.574 548.824" fill="#565661" style=""/>
  <path d="M -44.155 406.78 C -60.401 412.044 -77.264 417.793 -77.264 417.793 C -77.264 417.793 -92.644 423.568 -99.158 417.793 C -99.98 417.104 -100.897 416.559 -101.877 416.179 C -101.033 416.829 -100.12 417.371 -99.158 417.793 L -140.795 403.352 L -138.846 397.543 L -63.241 394.755 L -44.396 406.123 L -44.155 406.78 Z" opacity="0.1" style=""/>
  <path d="M -121.051 381.722 L -90.269 374.358 C -90.269 374.358 -16.718 389.085 -11.247 394.971 C -11.247 394.971 -70.084 407.85 -76.582 412.235 C -83.081 416.619 -121.742 421.47 -121.051 381.722 Z" fill="#fff" style=""/>
  <path d="M -134.288 298.952 C -136.695 307.161 -143.266 314.557 -151.265 314.912 C -151.847 314.985 -152.435 314.871 -152.958 314.584 C -153.96 313.91 -153.984 312.331 -153.575 311.131 C -153.166 309.931 -152.452 308.852 -152.339 307.592 C -152.315 307.335 -152.332 307.075 -152.387 306.823 C -152.596 305.796 -153.374 304.882 -154.289 305.097 C -152.998 303.987 -152.704 302.003 -153.607 300.514 C -153.97 300.073 -154.297 299.599 -154.586 299.098 C -155.251 297.631 -154.217 295.982 -153.783 294.411 C -152.893 290.959 -155.155 287.506 -155.34 283.906 C -155.501 280.687 -153.984 277.657 -153.607 274.463 C -153.006 269.284 -155.396 264.321 -155.677 259.151 C -155.87 255.542 -155.043 251.969 -154.121 248.49 C -153.318 245.383 -152.411 242.241 -152.355 238.996 C -152.355 236.639 -152.733 234.309 -152.837 231.961 C -153.003 229.815 -152.641 227.659 -151.786 225.712 C -151.23 224.566 -150.285 223.696 -149.147 223.286 C -146.515 222.336 -144.79 223.812 -144.406 226.496 C -143.763 231.063 -144.132 235.724 -143.29 240.307 C -142.512 244.594 -141.331 248.784 -139.768 252.815 C -138.348 256.457 -136.623 259.979 -135.532 263.751 C -134.711 266.86 -134.124 270.036 -133.775 273.246 C -132.7 281.869 -131.858 290.743 -134.288 298.952 Z" style="fill: rgb(39, 50, 255);"/>
  <path d="M 48.433 507.874 C 46.38 510.988 43.19 513.01 39.664 513.434 C 36.183 513.899 32.564 512.959 29.187 513.986 C 28.125 514.174 27.22 514.923 26.78 515.979 C 26.697 516.681 26.646 517.387 26.628 518.094 C 26.235 520.399 23.419 520.917 21.229 520.9 L 12.196 520.84 C 10.318 520.84 8.24 520.727 6.892 519.328 C 5.567 517.749 5.532 515.358 6.812 513.735 C 7.092 513.378 7.436 513.085 7.823 512.872 C 6.672 512.462 5.835 511.391 5.657 510.101 C 5.493 508.832 5.55 507.541 5.825 506.295 C 5.825 502.687 6.628 496.645 8.986 493.822 C 11.882 490.309 16.905 485.769 21.277 484.828 C 24.271 484.21 27.359 485.155 29.604 487.374 C 31.674 489.446 33.182 492.691 36.022 493.053 C 37.571 493.261 39.063 492.475 40.595 492.19 C 44.163 491.697 47.636 493.67 49.268 497.12 C 49.656 497.973 49.927 498.883 50.069 499.821 C 50.493 502.632 49.909 505.51 48.433 507.874 Z" fill="#a26565" style=""/>
  <path d="M 48.433 507.874 C 46.38 510.988 43.19 513.01 39.664 513.434 C 36.183 513.899 32.564 512.959 29.187 513.986 C 28.125 514.174 27.22 514.923 26.78 515.979 C 26.697 516.681 26.646 517.387 26.628 518.094 C 26.235 520.399 23.419 520.917 21.229 520.9 L 12.196 520.84 C 10.318 520.84 8.24 520.727 6.892 519.328 C 5.567 517.749 5.532 515.358 6.812 513.735 C 12.026 513.502 17.153 513.735 22.352 512.579 C 24.461 512.121 26.54 511.517 28.673 511.198 C 33.295 510.489 38.212 511.094 42.456 508.988 C 45.995 507.262 48.529 503.748 50.029 499.829 C 50.463 502.632 49.893 505.506 48.433 507.874 Z" opacity="0.1" style=""/>
  <path d="M 24.598 494.227 C 21.389 496.904 17.626 498.993 13.584 499.217 C 9.54 499.441 5.248 497.491 3.266 493.71 C 0.37 488.159 2.937 480.443 -0.609 475.35 C -1.716 473.753 -3.312 472.622 -4.483 471.077 C -5.655 469.532 -6.329 467.21 -5.286 465.571 C -6.546 466.088 -7.878 464.776 -8.246 463.378 C -8.615 461.979 -8.383 460.477 -8.607 459.062 C -9.193 455.307 -12.619 452.899 -14.263 449.567 C -15.907 446.235 -15.683 441.911 -15.867 437.966 C -16.278 428.355 -19.603 419.154 -25.334 411.768 C -26.426 410.37 -27.821 408.946 -29.522 409.015 C -29.225 405.855 -31.183 402.835 -33.718 401.247 C -36.253 399.658 -39.27 399.123 -42.206 398.812 C -71.833 395.67 -102.704 407.522 -130.991 397.552 C -138.862 394.782 -146.451 390.146 -151.265 382.878 C -155.053 377.29 -156.583 370.293 -155.509 363.474 L -155.509 363.353 C -154.394 357.225 -151.385 355.714 -146.403 352.917 C -140.652 349.646 -134.64 346.934 -128.44 344.812 C -116.407 340.764 -103.45 339.305 -91.031 342.274 C -85.231 343.673 -79.639 345.986 -73.831 347.341 C -71.544 347.877 -69.242 348.256 -66.924 348.576 C -63.321 349.059 -59.703 349.378 -56.077 349.827 C -44.482 351.264 -33.063 354.027 -22.013 358.071 C -17.898 359.572 -13.782 361.29 -10.244 364.009 C -4.591 368.426 -0.822 375.1 0.217 382.533 C 0.554 385.07 0.562 387.712 1.076 390.172 C 1.563 392.24 2.207 394.261 3.001 396.214 C 9.856 414.45 15.458 433.203 19.761 452.32 C 20.005 453.74 20.456 455.11 21.1 456.377 C 22.127 458.164 23.892 459.364 24.927 461.151 C 27.334 465.363 25.016 471.241 27.149 475.626 C 27.888 477.146 29.115 478.345 29.853 479.865 C 32.26 484.845 28.705 490.801 24.598 494.227 Z" fill="#454b69" style=""/>
  <path d="M -16.397 395.049 C -15.257 394.078 -14.273 392.912 -13.485 391.596 C -12.694 390.274 -12.381 388.687 -12.602 387.133 C -11.968 391.119 -13.125 395.191 -15.723 398.113 C -17.737 400.332 -21.515 402.506 -24.459 401.747 C -24.043 399.21 -18.266 396.758 -16.397 395.049 Z" opacity="0.1" style=""/>
  <path d="M -66.522 352.028 C -67.014 353.907 -68.353 355.394 -70.084 355.982 C -71.795 356.544 -73.586 356.77 -75.371 356.646 L -76.976 356.646 C -98.027 356.146 -119.303 351.121 -139.864 355.912 C -142.342 356.462 -144.773 357.233 -147.133 358.218 C -150.139 359.491 -152.953 361.237 -155.485 363.396 L -155.485 363.275 C -154.369 357.146 -151.361 355.636 -146.379 352.84 C -140.633 349.596 -134.63 346.91 -128.44 344.812 C -116.407 340.764 -103.45 339.305 -91.031 342.274 C -85.231 343.673 -79.639 345.986 -73.831 347.341 C -71.544 347.877 -69.242 348.256 -66.924 348.576 C -66.474 349.658 -66.334 350.86 -66.522 352.028 Z" opacity="0.1" style=""/>
  <path d="M -66.522 350.794 C -67.011 352.678 -68.351 354.168 -70.084 354.756 C -71.795 355.32 -73.586 355.542 -75.371 355.412 L -76.976 355.412 C -98.027 354.912 -119.303 349.887 -139.864 354.678 C -142.341 355.229 -144.773 355.997 -147.133 356.974 C -150.281 358.325 -153.216 360.188 -155.838 362.499 C -156.452 360.68 -157.065 358.859 -157.674 357.034 C -158.413 354.86 -156.07 354.376 -155.621 352.425 C -155.324 351.104 -155.83 349.603 -156.086 348.196 C -156.152 347.851 -156.195 347.502 -156.214 347.151 C -156.359 344.035 -155.324 342.24 -152.949 340.556 C -145.906 335.55 -137.314 332.115 -129.275 329.533 C -125.001 328.08 -120.586 327.159 -116.118 326.789 C -109.796 326.391 -103.482 327.652 -97.329 329.249 C -89.764 331.26 -82.279 333.919 -75.572 338.175 C -72.282 340.237 -69.073 342.827 -67.3 346.504 C -66.593 347.796 -66.318 349.31 -66.522 350.794 Z" fill="#a26565" style=""/>
  <path d="M -134.288 298.952 C -136.695 307.161 -143.266 314.557 -151.265 314.912 C -151.847 314.985 -152.435 314.871 -152.958 314.584 C -153.96 313.91 -153.984 312.331 -153.575 311.131 C -153.166 309.931 -152.452 308.852 -152.339 307.592 C -152.315 307.335 -152.332 307.075 -152.387 306.823 C -148.143 300.385 -144.028 293.876 -142.399 286.254 C -142.07 284.941 -141.969 283.575 -142.103 282.223 C -142.319 280.67 -143.05 279.262 -143.451 277.761 C -144.156 275.102 -143.827 272.288 -143.627 269.535 C -142.791 257.41 -144.674 245.247 -149.114 234.066 C -150.198 231.374 -151.433 228.646 -151.81 225.772 C -151.254 224.626 -150.309 223.758 -149.171 223.346 C -146.539 222.396 -144.814 223.873 -144.43 226.557 C -143.787 231.123 -144.156 235.785 -143.314 240.367 C -142.536 244.654 -141.355 248.845 -139.792 252.875 C -138.372 256.517 -136.647 260.04 -135.556 263.811 C -134.735 266.92 -134.148 270.096 -133.799 273.306 C -132.7 281.869 -131.858 290.743 -134.288 298.952 Z" opacity="0.1" style=""/>
  <path d="M -66.522 350.794 C -67.011 352.678 -68.351 354.168 -70.084 354.756 C -71.795 355.32 -73.586 355.542 -75.371 355.412 L -76.976 355.412 C -83.828 350.515 -92.066 348.375 -100.241 349.37 C -102.856 349.706 -105.472 350.362 -108.087 350.103 C -113.374 349.586 -117.658 345.494 -122.367 342.879 C -133.33 337.054 -146.48 338.974 -155.605 347.73 L -156.062 348.161 C -156.128 347.816 -156.171 347.468 -156.19 347.116 C -156.335 344.001 -155.3 342.205 -152.925 340.522 C -145.882 335.516 -137.29 332.08 -129.251 329.5 C -124.977 328.046 -120.562 327.124 -116.094 326.754 C -109.772 326.358 -103.458 327.617 -97.305 329.214 C -89.74 331.226 -82.255 333.884 -75.548 338.14 C -72.282 340.237 -69.073 342.827 -67.3 346.504 C -66.593 347.796 -66.318 349.31 -66.522 350.794 Z" opacity="0.1" style=""/>
  <path d="M -48.528 256.241 L -48.64 256.552 C -50.437 261.567 -53.742 265.806 -55.86 270.691 C -58.532 276.881 -59.189 283.82 -59.784 290.622 C -60.297 296.449 -60.802 302.31 -60.393 308.153 C -59.366 322.55 -52.828 336.207 -51.078 350.328 C -50.648 353.589 -50.538 356.89 -50.75 360.176 C -50.894 362.256 -51.247 364.492 -52.53 366.029 C -53.814 367.565 -56.309 368.169 -57.689 366.694 C -57.072 365.425 -56.446 364.164 -55.82 362.895 C -59.486 359.831 -65.006 362.032 -69.29 360.116 C -71.176 359.253 -72.684 357.699 -74.264 356.31 C -81.551 349.935 -90.919 346.991 -100.249 348.144 C -102.864 348.489 -105.48 349.145 -108.095 348.886 C -113.382 348.36 -117.666 344.277 -122.375 341.662 C -133.337 335.84 -146.485 337.755 -155.613 346.504 C -156.736 347.626 -158.244 348.938 -159.624 348.23 C -160.157 347.879 -160.588 347.374 -160.867 346.772 C -166.122 337.113 -162.255 324.657 -156.639 315.248 C -151.024 305.84 -143.587 297.165 -141.276 286.263 C -140.943 284.951 -140.842 283.584 -140.979 282.232 C -141.196 280.678 -141.926 279.271 -142.327 277.769 C -143.034 275.11 -142.704 272.297 -142.504 269.543 C -141.662 257.417 -143.539 245.25 -147.975 234.066 C -149.259 230.847 -150.783 227.585 -150.783 224.088 C -150.783 218.582 -147.117 214.015 -144.084 209.587 C -140.595 204.494 -137.666 198.858 -133.246 194.671 C -129.058 190.693 -122.993 188.258 -117.811 190.278 C -109.004 187.977 -99.94 187.028 -90.887 187.455 C -87.758 187.611 -84.525 187.964 -81.781 189.596 C -78.845 191.322 -76.735 194.395 -73.847 196.233 C -71.737 197.589 -69.306 198.228 -67.012 199.177 C -60.676 201.84 -55.446 206.872 -52.282 213.351 C -49.073 220.04 -48.271 227.731 -47.565 235.223 C -46.891 242.275 -46.249 249.604 -48.528 256.241 Z" style="fill: rgb(39, 50, 255);"/>
  <path d="M -60.393 308.153 C -59.366 322.55 -52.828 336.207 -51.078 350.328 C -54.577 347.143 -59.446 343.941 -60.096 340.237 C -60.818 336.232 -63.129 330.984 -63.514 326.936 C -63.898 322.888 -61.26 317.941 -64.028 315.162 C -65.375 313.806 -61.789 314.186 -63.105 312.797 C -66.065 309.698 -66.795 304.925 -66.98 300.497 C -67.292 292.659 -66.37 284.735 -67.709 277.027 C -68.512 272.271 -70.189 267.739 -71.528 263.121 C -73.085 257.743 -74.208 252.236 -75.331 246.721 C -76.436 241.817 -77.24 236.84 -77.737 231.822 C -78.083 227.506 -77.922 222.931 -76.133 218.996 C -74.344 215.06 -70.726 211.866 -66.666 211.926 C -53.093 212.116 -55.435 231.917 -52.45 241.067 C -51.255 244.71 -49.642 248.231 -48.993 252.029 C -48.756 253.519 -48.627 255.025 -48.608 256.535 C -50.405 261.55 -53.71 265.788 -55.828 270.674 C -58.5 276.863 -59.157 283.802 -59.752 290.605 C -60.297 296.449 -60.802 302.31 -60.393 308.153 Z" opacity="0.1" style=""/>
  <path d="M -51.568 240.842 C -50.373 244.485 -48.76 248.007 -48.11 251.805 C -47.027 258.166 -48.704 264.925 -46.883 271.088 C -46.409 272.404 -46.012 273.75 -45.696 275.119 C -45.382 277.078 -45.744 279.081 -45.744 281.075 C -45.744 284.286 -44.805 287.394 -43.97 290.476 C -41.149 300.947 -39.282 311.69 -38.395 322.55 C -38.263 325.469 -37.835 328.363 -37.119 331.182 C -36.782 332.138 -36.494 333.112 -36.253 334.1 C -36.038 335.419 -35.986 336.763 -36.101 338.096 C -36.317 342.326 -36.758 346.573 -36.317 350.785 C -35.876 354.997 -34.448 359.27 -31.503 362.093 C -34.135 362.706 -36.919 363.318 -39.486 362.412 C -43.097 361.143 -45.262 357.233 -47.1 353.676 C -49.426 349.136 -58.267 345.045 -59.181 339.944 C -59.896 335.947 -62.206 330.699 -62.592 326.642 C -62.976 322.585 -60.345 317.657 -63.113 314.877 C -64.452 313.522 -60.866 313.893 -62.19 312.512 C -65.142 309.413 -65.872 304.64 -66.057 300.203 C -66.37 292.374 -65.456 284.451 -66.787 276.742 C -67.589 271.986 -69.266 267.455 -70.605 262.828 C -72.162 257.459 -73.285 251.952 -74.408 246.427 C -75.517 241.524 -76.321 236.547 -76.815 231.529 C -77.16 227.213 -77.008 222.63 -75.211 218.694 C -73.413 214.757 -69.796 211.572 -65.744 211.624 C -52.226 211.883 -54.553 231.693 -51.568 240.842 Z" style="fill: rgb(39, 50, 255);"/>
  <path d="M -90.253 244.218 C -88.985 245.815 -87.357 247.567 -85.44 247.256 C -85.742 247.773 -86.373 247.934 -86.86 247.619 C -87.319 247.29 -87.688 246.834 -87.927 246.298 L -90.67 241.317 C -91.031 240.67 -93.519 236.898 -94.128 239.073 C -94.368 239.997 -90.871 243.441 -90.253 244.218 Z" opacity="0.1" style=""/>
  <path d="M -91.729 256.639 C -91.808 255.011 -92.445 253.473 -93.519 252.323 C -94.482 251.382 -95.608 250.652 -96.832 250.173 C -99.84 248.845 -103.402 247.773 -106.667 247.947 C -105.48 249.811 -101.669 250.925 -99.76 251.977 C -97.053 253.479 -94.376 255.034 -91.729 256.639 Z" opacity="0.1" style=""/>
  <path d="M -83.185 291.994 C -83.739 296.414 -87.1 299.763 -90.501 302.352 C -93.903 304.942 -97.721 307.169 -99.944 310.915 C -101.484 313.505 -102.175 316.509 -103.482 319.211 C -104.927 322.189 -107.084 324.692 -108.809 327.488 C -110.534 330.284 -111.882 333.625 -111.352 336.94 C -111.337 337.249 -111.203 337.536 -110.983 337.734 C -110.647 337.886 -110.262 337.841 -109.964 337.613 C -106.467 335.645 -105.087 331.148 -103.619 327.255 C -102.078 323.326 -100.342 319.488 -98.42 315.758 C -97.553 314.032 -96.599 312.149 -94.987 311.191 C -93.882 310.697 -92.752 310.273 -91.601 309.922 C -89.968 309.117 -88.536 307.907 -87.421 306.392 C -83.041 300.77 -80.755 293.602 -81.003 286.272 C -81.051 284.727 -81.132 277.286 -83.289 279.582 C -85.448 281.878 -82.816 288.991 -83.185 291.994 Z" opacity="0.1" style=""/>
  <path d="M -77.898 122.493 C -70.999 125.73 -65.062 132.851 -65.278 140.922 C -65.464 149.398 -72.057 157.383 -69.788 165.505 C -68.472 170.217 -64.509 173.377 -61.372 176.959 C -49.426 190.563 -49.45 214.309 -61.436 227.886 C -66.025 233.065 -71.921 236.752 -76.775 241.697 C -93.887 259.047 -94.617 289.06 -85.456 312.357 C -92.475 313.99 -99.63 314.858 -106.812 314.946 C -110.173 314.946 -114.288 314.333 -115.508 310.958 C -116.631 307.842 -114.706 303.63 -116.92 301.325 C -117.963 300.246 -119.527 300.099 -120.931 299.849 C -129.964 298.278 -137.378 290.518 -140.763 281.377 C -144.148 272.236 -143.972 261.947 -142.031 252.332 C -140.651 245.383 -138.492 237.735 -141.694 231.521 C -145.705 223.7 -157.242 220.403 -157.065 211.46 C -156.921 204.132 -148.89 200.567 -144.333 195.121 C -135.926 185.09 -139.928 169.527 -139.944 156.01 C -139.944 144.116 -136.078 131.841 -127.847 123.917 C -115.604 112.031 -92.025 115.889 -77.898 122.493 Z" fill="#a26565" style=""/>
  <g opacity="0.1" transform="matrix(0.802257, 0, 0, 0.863175, -359.522614, -54.293858)" style="">
    <path d="M308.12,401.78c-4.39-7.92-15.92-11.84-18.6-19.63a11.09,11.09,0,0,0-2.16,6.26c-.22,10.36,14.14,14.18,19.16,23.25a18.89,18.89,0,0,1,2,10.42C310.1,415.12,311.49,407.86,308.12,401.78Z" transform="translate(-34.96 -80.93)"/>
    <path d="M397.26,322.75c1.8-5.25,4.41-10.55,4.54-16a15,15,0,0,0-.05-1.77C399.74,311,396.66,316.84,397.26,322.75Z" transform="translate(-34.96 -80.93)"/>
    <path d="M309.84,350.72c3.44-10.87.47-24.35.46-36.41,0-1.46.06-2.93.17-4.39a57.74,57.74,0,0,0-1.78,14.26C308.71,332.79,310.22,342.13,309.84,350.72Z" transform="translate(-34.96 -80.93)"/>
    <path d="M408.19,397.61c-5.72,6-13.07,10.27-19.12,16-10.8,10.17-16.35,24.1-17.74,38.87,2.58-11,7.79-21.13,16.14-29,6-5.7,13.4-9.95,19.12-16a42.49,42.49,0,0,0,11.15-27.06A40.61,40.61,0,0,1,408.19,397.61Z" transform="translate(-34.96 -80.93)"/>
    <path d="M351.63,498.44c-4.19,0-9.32-.72-10.84-4.63-1.4-3.6,1-8.48-1.76-11.16-1.3-1.25-3.26-1.42-5-1.71-11.25-1.81-20.49-10.81-24.71-21.39-3.11-7.82-3.78-16.35-3-24.77-.08.33-.15.66-.22,1-2.38,11.14-2.63,23.07,1.58,33.66s13.46,19.58,24.71,21.39c1.78.29,3.74.47,5,1.71,2.79,2.68.36,7.56,1.76,11.16,1.52,3.91,6.65,4.68,10.84,4.63a133.23,133.23,0,0,0,26.62-3,89.38,89.38,0,0,1-3.23-8.93A132.74,132.74,0,0,1,351.63,498.44Z" transform="translate(-34.96 -80.93)"/>
  </g>
  <path d="M -79.198 268.447 C -77.216 270.052 -75.066 263.933 -76.293 262.405 C -76.623 262.801 -79.503 268.222 -79.198 268.447 Z" opacity="0.1" style=""/>
  <path d="M -70.75 379.227 C -68.416 378.364 -65.937 377.5 -64.412 375.428 C -63.153 373.763 -62.118 367.151 -64.781 370.319 C -67.044 373.038 -68.11 376.62 -70.75 379.227 Z" opacity="0.1" style=""/>
  <path d="M -46.979 372.296 C -47.26 374.333 -47.781 376.448 -49.121 377.915 C -49.37 378.191 -49.924 378.364 -49.996 377.993 C -48.499 377.136 -47.109 376.079 -45.856 374.851 C -43.145 371.959 -42.775 364.838 -46.907 362.947 C -46.947 366.072 -46.538 369.119 -46.979 372.296 Z" opacity="0.1" style=""/>
  <path d="M -18.443 359.46 C -18.443 359.46 -41.211 349.835 -49.442 350.828 C -57.673 351.821 -40.12 365.778 -40.12 365.778 L -29.626 373.392 C -29.626 373.392 -23.209 370.803 -22.783 370.604 C -22.358 370.405 -18.443 359.46 -18.443 359.46 Z" fill="#454b69" style=""/>
  <path d="M -175.099 256.207 C -175.099 256.207 -157.995 245.539 -135.42 258.796 C -112.844 272.055 -109.082 350.078 -109.082 350.078 C -109.082 350.078 -118.316 429.567 -82.712 411.88 C -82.712 411.88 -17.729 390.172 -11.223 394.954 C -11.223 394.954 -5.062 394.954 -17.376 397.897 C -29.69 400.84 -77.264 417.06 -77.264 417.06 C -77.264 417.06 -92.644 422.843 -99.158 417.06 C -105.672 411.276 -124.132 417.802 -126.531 378.045 C -128.118 352.991 -130.974 328.048 -135.083 303.328 L -141.429 283.086 L -175.099 256.207 Z" fill="#565661" style=""/>
  <path d="M -177.153 379.14 C -177.153 379.14 -169.629 298.537 -181.967 269.457 C -192.701 244.114 -151.192 255.965 -140.362 259.418 C -138.685 259.957 -137.224 261.081 -136.206 262.612 C -129.788 272.323 -106.763 311.243 -113.551 363.318 C -113.551 363.318 -116.286 409.697 -99.182 417.051 L -151.882 398.787 C -156.158 397.302 -160.498 396.068 -164.879 394.997 C -170.462 393.633 -179.56 389.757 -177.153 379.14 Z" fill="#fff" style=""/>
  <polygon points="197.669 529.617 204.512 529.617 208.996 430.664 209.302 425.035 203.485 422.835 203.1 428.816 197.669 529.617" fill="#565661" style=""/>
  <polygon points="203.1 428.816 208.996 430.664 209.302 425.035 203.485 422.835 203.1 428.816" opacity="0.1" style=""/>
  <path d="M 140.532 491.405 C 140.364 492.76 140.041 494.088 139.569 495.359 C 139.083 497.017 138.039 498.421 136.641 499.294 C 135.702 499.711 134.697 499.925 133.681 499.924 C 129.902 500.166 125.907 500.106 122.658 498.034 C 121.274 497.074 120.005 495.935 118.879 494.642 C 111.578 486.836 104.941 478.344 99.047 469.265 C 98.061 467.736 97.042 465.932 97.483 464.086 C 105.117 461.808 112.366 458.238 118.959 453.511 C 119.87 452.76 120.889 452.177 121.976 451.785 C 123.837 451.358 125.754 451.281 127.64 451.561 C 129.461 451.88 129.541 451.941 130.239 454.15 C 131.394 457.888 131.202 461.919 132.502 465.656 C 133.326 467.722 134.331 469.699 135.502 471.561 C 138.855 477.594 141.43 484.716 140.532 491.405 Z" fill="#a26565" style=""/>
  <path d="M 140.532 491.405 C 140.364 492.76 140.041 494.088 139.569 495.359 C 139.083 497.017 138.039 498.421 136.641 499.294 C 135.702 499.711 134.697 499.925 133.681 499.924 C 129.902 500.166 125.907 500.106 122.658 498.034 C 121.274 497.074 120.005 495.935 118.879 494.642 C 111.578 486.836 104.941 478.344 99.047 469.265 C 98.061 467.736 97.042 465.932 97.483 464.086 C 99.974 463.343 102.426 462.461 104.831 461.444 L 104.952 461.539 C 107.415 463.429 109.204 466.14 110.945 468.798 L 116.561 477.301 C 117.561 478.97 118.744 480.506 120.082 481.876 C 121.742 483.309 123.575 484.493 125.53 485.398 C 128.169 486.769 130.809 488.142 133.553 489.247 C 135.326 490.015 138.326 490.317 140.532 491.405 Z" opacity="0.1" style=""/>
  <path d="M 145.714 399.227 C 145.162 400.661 144.49 402.039 143.709 403.344 C 136.253 416.816 130.501 431.299 126.605 446.408 C 125.498 446.14 124.872 447.763 124.881 448.997 C 124.889 450.232 124.881 451.785 123.821 452.234 C 123.509 452.364 123.155 452.364 122.85 452.511 C 122.177 452.839 121.984 453.762 121.887 454.556 L 120.941 462.031 C 120.613 464.621 120.323 467.426 121.502 469.713 C 122.316 471.073 123.371 472.246 124.607 473.166 L 140.267 486.459 C 140.909 487.003 141.704 487.582 142.474 487.279 C 144.23 486.589 142.674 483.205 144.078 481.833 C 145.009 480.891 146.485 481.599 147.777 481.487 C 149.461 481.349 150.737 479.683 151.162 477.931 C 151.46 476.147 151.491 474.322 151.25 472.527 C 151.144 471.708 151.233 470.874 151.507 470.102 C 151.986 469.283 152.644 468.605 153.425 468.126 C 158.941 463.79 162.1 456.792 161.856 449.446 C 161.729 448.345 161.766 447.228 161.969 446.14 C 162.295 445.143 162.786 444.219 163.421 443.413 C 169.109 435.135 173.85 426.149 178.559 417.181 C 181.271 412.002 184.031 406.745 184.977 400.91 C 185.33 399.978 184.752 398.942 183.822 398.838 C 181.472 398.049 179.076 397.432 176.649 396.991 C 169.277 395.386 162.161 392.908 154.989 390.526 C 147.817 388.143 147.873 392.994 145.714 399.227 Z" fill="#454b69" style=""/>
  <polygon points="111.803 550.55 123.099 552.018 175.093 425.035 189.117 423.93 213.754 431.665 218.535 582.85 229.823 582.85 225.379 426.14 252.407 426.883 300.638 556.065 310.9 556.065 260.173 405.088 258.223 399.27 182.619 396.481 163.773 407.85 163.533 408.506 111.803 550.55" fill="#565661" style=""/>
  <path d="M 163.533 408.506 C 179.779 413.771 196.642 419.52 196.642 419.52 C 196.642 419.52 212.021 425.294 218.535 419.52 C 219.357 418.83 220.275 418.286 221.255 417.905 C 220.41 418.555 219.498 419.097 218.535 419.52 L 260.173 405.079 L 258.247 399.27 L 182.643 396.481 L 163.797 407.85 L 163.533 408.506 Z" opacity="0.1" style=""/>
  <path d="M 240.429 383.448 L 209.647 376.085 C 209.647 376.085 136.096 390.811 130.625 396.697 C 130.625 396.697 189.461 409.576 195.96 413.961 C 202.459 418.346 241.119 423.197 240.429 383.448 Z" fill="#fff" style=""/>
  <path d="M 126.204 501.772 C 124.35 505.57 119.786 506.64 115.774 506.7 C 110.205 506.775 104.674 505.712 99.473 503.568 C 96.504 502.342 93.656 500.762 90.591 499.864 C 86.027 498.518 80.964 498.63 76.954 495.928 C 74.826 494.402 73.068 492.352 71.827 489.946 C 71.595 489.523 71.37 489.083 71.161 488.634 C 69.244 484.62 68.353 479.95 69.42 475.617 C 70.487 471.285 74.362 466.511 78.855 466.58 C 84.19 466.666 90.551 469.385 95.702 470.793 C 102.12 472.519 108.538 474.512 114.21 478.164 C 118.959 481.237 123.155 485.647 125.394 491.033 C 125.824 492.073 126.178 493.147 126.453 494.245 C 127.15 496.731 127.311 499.501 126.204 501.772 Z" fill="#a26565" style=""/>
  <path d="M 126.204 501.772 C 124.35 505.57 119.786 506.64 115.774 506.7 C 110.205 506.775 104.674 505.712 99.473 503.568 C 96.504 502.342 93.656 500.762 90.591 499.864 C 86.027 498.518 80.964 498.63 76.954 495.928 C 74.826 494.402 73.068 492.352 71.827 489.946 C 71.595 489.523 71.37 489.083 71.161 488.634 C 71.963 488.704 72.702 488.789 73.103 488.833 C 78.028 489.342 82.73 491.276 87.431 492.734 C 93.957 494.762 100.696 495.894 107.487 496.1 C 112.301 496.247 117.323 495.868 121.527 493.339 C 122.782 492.486 124.084 491.717 125.426 491.033 C 125.856 492.073 126.21 493.147 126.485 494.245 C 127.15 496.731 127.311 499.501 126.204 501.772 Z" opacity="0.1" style=""/>
  <path d="M 160.677 337.648 C 150.248 335.809 139.626 335.361 129.052 334.911 L 116.119 334.359 C 115.2 334.244 114.268 334.366 113.399 334.713 C 112.652 335.231 111.941 335.807 111.274 336.439 C 109.974 337.389 108.314 337.493 106.749 337.587 C 95.651 338.245 84.614 339.786 73.728 342.197 C 68.112 343.431 62.28 345.045 58.06 349.215 C 53.6 353.625 51.643 360.35 51.489 366.858 C 51.337 373.366 52.925 379.762 54.603 386.011 C 56.737 393.534 57.917 401.333 58.108 409.196 C 58.033 411.377 58.111 413.562 58.341 415.731 C 58.714 417.801 59.281 419.825 60.034 421.773 L 65.939 438.734 C 66.46 440.219 66.973 441.695 67.543 443.145 C 68.112 444.595 68.658 445.735 69.147 447.098 C 69.87 448.963 70.439 450.896 71.008 452.821 L 74.94 466.106 L 75.453 467.832 C 76.873 472.614 78.326 477.482 81.004 481.59 C 83.684 485.699 87.832 489.014 92.493 489.264 C 93.997 489.204 95.503 489.247 97.002 489.394 C 98.279 489.73 99.519 490.213 100.7 490.836 C 104.2 492.4 107.957 493.189 111.747 493.157 C 115.237 493.157 119.111 492.113 121.005 488.953 C 122.049 487.227 122.321 485.104 122.61 483.067 C 123.115 478.975 123.605 474.703 122.313 470.818 C 121.51 468.497 120.163 466.502 119.233 464.215 C 117.933 461.099 117.507 457.655 116.665 454.366 C 114.842 447.288 111.133 440.939 105.995 436.102 C 104.17 428.328 102.831 420.433 101.983 412.467 C 101.866 410.704 101.54 408.964 101.013 407.288 C 100.074 404.699 98.173 402.601 97.379 399.961 C 96.633 397.509 96.858 394.678 95.502 392.563 C 106.789 395.904 117.965 395.153 129.686 394.954 C 133.439 394.966 137.19 394.736 140.917 394.263 C 142.655 393.921 144.414 393.719 146.18 393.659 C 149.806 393.659 153.208 395.386 156.537 396.904 C 165.948 401.22 175.864 404.613 186.084 405.079 C 196.634 405.554 207.063 402.887 217.372 400.245 C 221.905 399.08 226.614 397.82 230.208 394.617 C 233.803 391.414 235.824 385.64 233.61 381.247 C 231.926 377.941 228.435 376.318 225.178 374.937 C 216.16 371.104 207.095 367.367 198.407 362.731 C 185.137 355.775 175.213 340.237 160.677 337.648 Z" fill="#454b69" style=""/>
  <path d="M 142.081 298.598 C 140.821 301.532 138.703 303.932 137.138 306.694 C 134.522 311.241 133.658 316.707 134.732 321.93 C 135.875 327.16 139.209 331.525 143.757 333.746 C 145.761 334.605 147.868 335.151 150.014 335.369 C 152.838 335.74 155.848 335.817 158.342 334.351 C 160.209 333.145 161.741 331.421 162.778 329.361 C 164.937 325.477 166.164 321.1 167.288 316.741 C 169.365 308.696 171.138 300.445 170.881 292.098 C 170.793 289.223 170.264 285.986 168.049 284.329 C 166.906 283.62 165.639 283.172 164.327 283.018 L 153.745 280.98 C 151.7 280.583 148.129 278.969 146.357 280.558 C 144.584 282.145 144.447 286.841 144.142 289.043 C 143.661 292.297 143.364 295.603 142.081 298.598 Z" fill="#a1616a" style=""/>
  <path d="M 270.706 265.21 L 267.938 290.173 C 267.366 294.626 267.036 299.11 266.951 303.604 C 266.951 306.107 267.023 308.887 265.483 310.76 C 264.73 311.612 263.776 312.229 262.723 312.547 C 259.362 313.669 255.696 312.667 252.487 311.122 C 250.61 310.259 248.692 309.007 247.842 306.997 C 247.348 305.602 247.143 304.108 247.24 302.62 C 247.24 287.73 248.548 272.202 255.777 259.513 C 256.393 258.268 257.262 257.188 258.319 256.353 C 260.325 254.973 262.949 255.361 265.219 256.112 C 266.615 256.569 270.385 257.079 271.276 258.417 C 272.166 259.755 270.899 263.492 270.706 265.21 Z" fill="#a1616a" style=""/>
  <circle cx="694.04" cy="229.57" r="36" fill="#a1616a" transform="matrix(0.802257, 0, 0, 0.863175, -359.522614, -54.293858)" style=""/>
  <path d="M 189.55 190.174 C 189.446 192.592 188.834 194.953 187.761 197.079 C 202.507 194.663 217.214 191.969 231.885 189.001 C 227.018 186.308 223.338 181.654 221.648 176.053 C 220.851 173.049 220.413 169.948 220.348 166.826 C 220.116 161.873 220.204 156.909 220.614 151.97 C 215.479 152.549 210.617 154.62 205.724 156.398 C 200.803 158.187 195.798 159.695 190.729 160.913 C 188.283 161.5 185.82 162 183.348 162.466 C 180.46 163.018 179.072 163.01 181.078 165.737 C 186.461 173.023 190.304 180.429 189.55 190.174 Z" fill="#a1616a" style=""/>
  <path d="M 198.423 186.022 C 194.612 186.635 190.617 187.325 187.576 189.864 C 186.419 190.933 185.318 192.071 184.279 193.273 C 178.238 199.583 169.71 202.121 162.377 206.574 C 161.182 207.211 160.122 208.107 159.265 209.207 C 158.462 210.407 158.053 211.935 157.211 213.126 C 156.232 214.507 154.684 215.371 153.922 216.898 C 153.16 218.426 153.328 220.048 153.248 221.672 C 153.064 225.237 151.812 228.62 150.841 232.03 C 146.389 248.352 148.828 266.557 142.089 281.973 C 142.715 283.768 143.996 285.208 145.634 285.961 C 147.33 286.618 149.1 287.027 150.897 287.178 L 165.828 289.172 C 167.961 289.456 170.224 289.725 172.173 288.767 C 170.39 294.056 169.129 299.532 168.41 305.106 C 168.048 308.513 167.485 311.892 166.726 315.222 C 164.672 322.818 159.505 329.145 153.384 333.47 C 152.613 333.904 151.963 334.55 151.499 335.343 C 150.697 337.07 151.884 339.003 152.726 340.695 C 155.173 345.598 154.837 351.484 154.804 357.044 C 154.772 362.602 155.294 368.704 158.904 372.692 C 161.038 375.049 163.958 376.326 166.798 377.543 L 190.152 387.582 C 194.006 389.348 197.98 390.791 202.041 391.898 C 208.195 393.409 214.588 393.349 220.902 393.055 C 225.074 392.865 229.241 392.577 233.402 392.192 C 235.057 392.186 236.683 391.725 238.127 390.854 C 239.369 389.799 240.325 388.403 240.894 386.814 C 244.143 379.209 245.235 370.336 250.273 363.966 C 253.73 359.589 259.098 356.094 259.491 350.371 C 259.675 347.523 258.495 344.752 258.479 341.894 C 258.479 338.381 260.189 335.041 260.085 331.536 C 259.867 325.831 254.87 321.48 254.075 315.835 C 252.054 301.524 258.809 287.23 262.957 273.462 C 263.702 271.002 264.665 268.283 266.863 267.229 C 269.062 266.177 272.158 266.729 272.945 264.398 C 274.926 258.547 275.399 251.684 275.142 245.461 C 274.998 241.862 273.811 238.339 273.947 234.732 C 274.043 232.193 274.798 229.725 274.998 227.195 C 275.303 223.372 274.365 219.574 273.394 215.88 C 273.113 214.561 272.694 213.28 272.142 212.064 C 271.55 210.962 270.85 209.928 270.057 208.983 L 266.15 203.985 C 264.321 201.646 262.387 199.221 259.731 198.037 C 258.873 195.75 256.129 194.171 254.163 192.91 C 252.182 191.701 250.136 190.62 248.034 189.673 L 225.94 179.177 C 225.114 178.73 224.23 178.421 223.317 178.262 C 221.972 178.214 220.636 178.51 219.418 179.125 C 212.679 182 205.643 184.866 198.423 186.022 Z" style="fill: rgb(39, 50, 255);"/>
  <path d="M 175.021 149.268 C 174.171 146.049 171.997 143.27 171.668 139.937 C 171.371 136.977 172.582 134.111 173.272 131.228 C 173.962 128.345 173.938 124.824 171.812 122.907 C 171.459 122.579 171.01 122.285 170.881 121.802 C 170.625 120.939 171.435 120.153 171.684 119.282 C 172.141 117.555 170.16 115.648 170.881 113.99 C 171.291 113.084 172.317 112.764 173.216 112.48 C 176.649 111.384 180.132 108.95 180.877 105.177 C 183.565 106.386 186.429 104.116 188.491 101.915 C 190.553 99.714 193.088 97.201 195.928 97.866 L 195.295 99.256 C 199.673 97.545 204.463 97.488 208.876 99.092 L 207.528 99.092 C 211.4 99.163 215.155 100.53 218.271 103.002 C 217.926 103.002 217.894 103.555 218.03 103.865 C 219.153 106.688 222.042 108.181 224.826 108.881 C 226.502 109.312 228.323 109.623 229.551 110.918 C 230.778 112.212 230.802 114.914 229.182 115.535 C 232.486 116.92 235.615 118.747 238.495 120.973 C 239.298 121.603 240.204 122.458 240.1 123.563 C 239.986 124.118 239.818 124.659 239.603 125.177 C 239.442 126.098 239.5 127.049 239.771 127.939 L 240.662 131.892 C 241.64 136.286 242.411 141.577 239.434 144.763 C 241.722 149.361 240.936 155.031 237.501 158.711 C 238.502 161.981 236.626 165.459 233.49 166.144 C 234.476 167.801 233.57 170.165 232.014 171.202 C 230.457 172.237 228.499 172.246 226.687 172.065 C 224.874 171.884 223.036 171.443 221.223 171.737 C 218.584 172.177 216 174.11 213.457 173.247 C 212.509 172.811 211.599 172.285 210.738 171.677 C 208.956 170.649 206.887 170.416 204.913 169.95 C 201.549 169.172 198.355 167.707 195.503 165.634 C 193.613 164.412 192.106 162.608 191.179 160.455 C 189.413 155.656 192.382 149.363 189.261 145.453 C 187.432 143.174 183.805 143.14 181.76 145.091 C 180.741 146.066 180.605 148.121 179.546 148.854 C 178.069 149.256 176.54 149.396 175.021 149.268 Z" fill="#464353" style=""/>
  <path d="M 135.774 396.775 C 134.634 395.804 133.651 394.638 132.862 393.322 C 132.072 392 131.758 390.413 131.98 388.859 C 131.346 392.845 132.503 396.917 135.101 399.839 C 137.114 402.058 140.893 404.233 143.837 403.474 C 143.42 400.936 137.644 398.484 135.774 396.775 Z" opacity="0.1" style=""/>
  <path d="M 294.477 257.933 C 294.477 257.933 277.373 247.265 254.798 260.523 C 232.222 273.781 228.459 351.804 228.459 351.804 C 228.459 351.804 237.694 431.294 202.089 413.607 C 202.089 413.607 137.106 391.898 130.601 396.68 C 130.601 396.68 124.439 396.68 136.754 399.623 C 149.068 402.567 196.642 418.786 196.642 418.786 C 196.642 418.786 212.021 424.569 218.535 418.786 C 225.05 413.002 243.51 419.529 245.908 379.771 C 247.496 354.717 250.351 329.774 254.461 305.054 L 260.806 284.812 L 294.477 257.933 Z" fill="#565661" style=""/>
  <path d="M 296.53 380.866 C 296.53 380.866 289.006 300.263 301.345 271.184 C 312.078 245.84 270.57 257.692 259.739 261.144 C 258.063 261.684 256.602 262.807 255.583 264.338 C 249.166 274.049 226.14 312.97 232.928 365.045 C 232.928 365.045 235.663 411.423 218.56 418.778 L 271.259 400.513 C 275.536 399.028 279.876 397.794 284.257 396.723 C 289.84 395.359 298.937 391.484 296.53 380.866 Z" fill="#fff" style=""/>
  <ellipse cx="434.687" cy="524.094" rx="78.171" ry="13.508" fill="#6c63ff" opacity="0.1" style=""/>
  <rect x="432.169" y="265.305" width="5.031" height="121.854" fill="#535461" style=""/>
  <path d="M 468.816 386.789 L 468.503 392.278 L 468.053 400.046 L 467.869 403.275 L 467.428 411.044 L 467.235 414.272 L 466.785 422.04 L 461.716 510.145 C 461.234 517.992 455.178 524.092 447.869 524.094 L 421.498 524.094 C 414.175 524.09 408.117 517.958 407.667 510.093 L 402.581 421.98 L 402.139 414.211 L 401.955 410.983 L 401.498 403.215 L 401.314 399.986 L 400.873 392.217 L 400.551 386.727 C 400.317 382.287 403.59 378.541 407.723 378.519 L 461.652 378.519 C 465.805 378.544 469.083 382.328 468.816 386.789 Z" fill="#565661" style=""/>
  <polygon points="468.503 392.278 468.053 400.021 401.322 400.021 400.873 392.278 468.503 392.278" fill="#9d9cb5" style=""/>
  <polygon points="467.869 403.258 467.428 411.009 401.955 411.009 401.506 403.258 467.869 403.258" fill="#9d9cb5" style=""/>
  <polygon points="467.235 414.238 466.785 421.98 402.589 421.98 402.139 414.238 467.235 414.238" fill="#9d9cb5" style=""/>
  <path d="M 393.187 310.975 C 422.485 333.781 434.688 369.447 434.688 369.447 C 434.688 369.447 399.388 368.144 370.082 345.339 C 340.775 322.533 328.589 286.876 328.589 286.876 C 328.589 286.876 363.896 288.18 393.187 310.975 Z" style="fill: rgb(39, 50, 255);"/>
  <path d="M 328.589 286.876 C 328.589 286.876 365.228 308.758 376.99 326.876 C 388.75 344.993 434.688 369.447 434.688 369.447" fill="none" stroke="#535461" stroke-miterlimit="10" stroke-width="2" style=""/>
  <path d="M 412.095 265.037 C 428.045 277.441 434.688 296.862 434.688 296.862 C 434.688 296.862 415.433 296.146 399.525 283.742 C 383.616 271.339 376.981 251.917 376.981 251.917 C 376.981 251.917 396.155 252.625 412.095 265.037 Z" style="fill: rgb(39, 50, 255);"/>
  <path d="M 376.981 251.917 C 376.981 251.917 396.925 263.829 403.319 273.687 C 409.713 283.544 434.728 296.862 434.728 296.862" fill="none" stroke="#535461" stroke-miterlimit="10" stroke-width="2" style=""/>
  <path d="M 457.857 295.87 C 439.541 317.527 435.666 345.83 435.666 345.83 C 435.666 345.83 461.491 339.011 479.791 317.346 C 498.09 295.68 501.98 267.385 501.98 267.385 C 501.98 267.385 476.172 274.212 457.857 295.87 Z" style="fill: rgb(39, 50, 255);"/>
  <path d="M 501.996 267.394 C 501.996 267.394 478.137 289.595 472.072 304.89 C 466.008 320.186 435.666 345.83 435.666 345.83" fill="none" stroke="#535461" stroke-miterlimit="10" stroke-width="2" style=""/>
  <path d="M 87.319 243.735 L 87.319 245.703 L 33.078 245.703 L 33.078 244.106 C 34.565 243.506 35.973 242.698 37.265 241.706 C 41.939 238.105 44.711 232.301 44.711 226.117 C 44.712 224.525 44.526 222.938 44.157 221.396 C 42.829 215.773 39.207 211.098 34.305 208.681 L 86.95 208.681 C 82.048 211.098 78.426 215.773 77.098 221.396 C 76.732 222.938 76.548 224.525 76.552 226.117 C 76.548 232.3 79.318 238.104 83.99 241.706 C 85.03 242.505 86.146 243.184 87.319 243.735 Z" fill="#dfe6f5" style=""/>
  <path d="M 86.95 208.681 C 82.048 211.098 78.426 215.773 77.098 221.396 L 44.157 221.396 C 42.829 215.773 39.207 211.098 34.305 208.681 L 86.95 208.681 Z" opacity="0.1" style=""/>
  <path d="M -29.025 198.624 L -29.025 209.708 C -29.025 215.819 -24.869 220.782 -19.734 220.782 L 139.842 220.782 C 144.977 220.782 149.141 215.819 149.141 209.708 L 149.141 198.624 L -29.025 198.624 Z" fill="#dfe6f5" style=""/>
  <path d="M 87.319 243.735 L 87.319 245.703 L 33.078 245.703 L 33.078 244.106 C 34.565 243.506 35.973 242.698 37.265 241.706 L 83.99 241.706 C 85.03 242.505 86.146 243.184 87.319 243.735 Z" opacity="0.1" style=""/>
  <rect x="15.156" y="242.319" width="90.085" height="5.844" rx="3.39" fill="#dfe6f5" style=""/>
  <path d="M 149.141 77.237 C 149.141 71.713 144.976 67.236 139.842 67.241 L -19.734 67.241 C -24.867 67.236 -29.029 71.714 -29.025 77.237 L -29.025 200.783 L 149.141 200.783 L 149.141 77.237 Z" fill="#474157" style=""/>
  <path d="M 144.278 81.699 L 144.278 187.87 C 144.283 190.59 142.235 192.798 139.706 192.798 L -19.59 192.798 C -22.119 192.798 -24.167 190.59 -24.163 187.87 L -24.163 81.699 C -24.167 80.836 -23.956 79.986 -23.553 79.239 C -22.736 77.716 -21.225 76.778 -19.59 76.779 L 139.706 76.779 C 142.231 76.779 144.278 78.981 144.278 81.699 Z" fill="#4c4c78" style=""/>
  <circle cx="523" cy="146.32" r="2.67" fill="#fff" transform="matrix(0.802257, 0, 0, 0.863175, -359.522614, -54.293858)" style=""/>
  <circle cx="523" cy="306.38" r="6.59" fill="#fff" transform="matrix(0.802257, 0, 0, 0.863175, -359.522614, -54.293858)" style=""/>
  <path d="M 144.278 81.699 L -24.147 81.699 C -24.147 78.981 -22.1 76.779 -19.574 76.779 L 139.706 76.779 C 142.231 76.779 144.278 78.981 144.278 81.699 Z" fill="#c8cad7" style=""/>
  <circle cx="423.72" cy="154.7" r="1.43" fill="#ededf4" transform="matrix(0.802257, 0, 0, 0.863175, -359.522614, -54.293858)" style=""/>
  <circle cx="428" cy="154.7" r="1.43" fill="#ededf4" transform="matrix(0.802257, 0, 0, 0.863175, -359.522614, -54.293858)" style=""/>
  <circle cx="432.28" cy="154.7" r="1.43" fill="#ededf4" transform="matrix(0.802257, 0, 0, 0.863175, -359.522614, -54.293858)" style=""/>
</svg>